<svg id="Layer_2" data-name="Layer 2" xmlns="http://www.w3.org/2000/svg" width="32" height="32" viewBox="0 0 32 32">
  <g id="Layer_1" data-name="Layer 1">
    <circle id="Ellipse_1" data-name="Ellipse 1" cx="16" cy="16" r="16" fill="#ffd41c"/>
    <path id="Path_14" data-name="Path 14" d="M9.36,9.976H7a7.3,7.3,0,0,1,.525-2.481h2.865A1.816,1.816,0,0,1,9.421,5.76c0-2.138,2.36-3.369,4.963-3.369a8.291,8.291,0,0,1,3.631.746,6.052,6.052,0,0,1-.807,2.32,4.64,4.64,0,0,0-2.562-.706c-1.271,0-2.017.545-2.017,1.513s.726,1.231,2.017,1.231h2.239a6.879,6.879,0,0,1-.545,2.481H12.81L10.672,20.063a14.121,14.121,0,0,1-3.45,0Z" transform="translate(7.121 2.43)"/>
    <circle id="Ellipse_2" data-name="Ellipse 2" cx="2.058" cy="2.058" r="2.058" transform="translate(8.271 9.098)"/>
    <path id="Path_15" data-name="Path 15" d="M4.512,10.17a10.087,10.087,0,0,0,8.493,4.236,10.087,10.087,0,0,0,8.513-4.236,4.035,4.035,0,0,1,1.412,1.352,11.1,11.1,0,0,1-9.925,5.588A11.1,11.1,0,0,1,3.08,11.522,4.035,4.035,0,0,1,4.512,10.17Z" transform="translate(3.133 10.346)"/>
  </g>
</svg>
